# xmcd
#
# Track frame offsets:
#	187
#	18032
#	36945
#	54275
#	73465
#	92682
#	111397
#	126780
#	146527
#	170315
#
# Disc length: 2436 seconds
#
# Revision: 1
# Processed by: cddbd v1.5.1PL0 Copyright (c) Steve Scherf et al.
# Submitted via: CDex 1.50Beta5
#
DISCID=8609820a
DTITLE=宮本 典子 - Sweet Sugar
DYEAR=1900
DGENRE=Jazz
TTITLE0=Another lover
TTITLE1=A love with no doubts
TTITLE2=Won't you stay with me
TTITLE3=I'm the one
TTITLE4=Sweet sugar
TTITLE5=Little boy blue
TTITLE6=Umi (Suddenly last summer)
TTITLE7=Hear me now
TTITLE8=Mother ~love~ image
TTITLE9=On god's side
EXTD=
EXTT0=
EXTT1=
EXTT2=
EXTT3=
EXTT4=
EXTT5=
EXTT6=
EXTT7=
EXTT8=
EXTT9=
PLAYORDER=
